<svg width="106" height="19" viewBox="0 0 106 19" fill="none" xmlns="http://www.w3.org/2000/svg">
<path d="M17.512 18L11.344 1.992H7.072L0.88 18H4.768L5.776 15.288H12.64L13.624 18H17.512ZM11.704 12.288H6.712L9.208 5.4L11.704 12.288ZM28.8063 10.848V8.952H24.5103V4.272H22.4223V8.952H18.1023V10.848H22.4223V15.72H24.5103V10.848H28.8063ZM43.0711 18.144C46.0471 18.144 48.7831 16.464 48.7831 13.344C48.7831 10.152 46.3591 9.384 43.5031 8.256C41.3671 7.44 39.8311 6.84 39.8551 5.208C39.8791 3.576 41.2951 2.712 42.9031 2.712C44.1751 2.712 45.6391 3.312 47.0071 4.44L48.2791 2.784C46.6711 1.488 44.7991 0.792 42.9031 0.792C39.9751 0.792 37.6951 2.76 37.6951 5.304C37.6951 8.304 40.2631 9.384 42.7831 10.32C45.0631 11.184 46.5991 11.688 46.5991 13.584C46.5991 15.24 45.1831 16.2 43.0951 16.2C41.4391 16.2 39.6151 15.432 38.3911 13.896L37.0471 15.504C38.7511 17.328 40.9351 18.144 43.0711 18.144ZM55.0729 18.144C56.4649 18.144 57.2569 17.808 57.9049 17.424L57.4009 15.72C56.8249 16.032 56.1049 16.32 55.4089 16.32C54.3049 16.32 53.9929 15.648 53.9929 14.232V7.992H57.8569V6.312H53.9929V2.112L52.0489 2.328V6.312H50.5369V7.992H52.0489V14.52C52.0489 16.872 53.0089 18.144 55.0729 18.144ZM64.5848 18.144C66.1208 18.144 67.5608 17.376 68.4488 15.984H68.4728V18H70.4168V6.312H68.4728V11.976C68.4728 14.76 66.8648 16.368 64.9928 16.368C63.1448 16.368 62.1368 15.36 62.1368 12.72V6.312H60.1928V13.272C60.1928 16.608 61.8968 18.144 64.5848 18.144ZM78.9014 18.144C80.7974 18.144 82.2854 17.256 83.1254 15.84H83.1494V18H85.0214V0.335999H83.0774V8.4H83.0534C82.1654 6.984 80.6534 6.168 78.8774 6.168C75.5894 6.168 73.1654 8.784 73.1654 12.24C73.1654 15.792 75.6614 18.144 78.9014 18.144ZM79.1654 16.368C76.7894 16.368 75.1574 14.592 75.1574 12.24C75.1574 9.648 76.9574 7.944 79.1894 7.944C81.5414 7.944 83.1494 9.84 83.1494 12.24C83.1494 14.712 81.3734 16.368 79.1654 16.368ZM89.7801 4.176C90.5721 4.176 91.1961 3.552 91.1961 2.784C91.1961 2.016 90.5721 1.392 89.7801 1.392C88.9881 1.392 88.3641 2.016 88.3641 2.784C88.3641 3.552 88.9881 4.176 89.7801 4.176ZM88.7961 6.312V18H90.7401V6.312H88.7961ZM99.8389 18.144C103.295 18.144 105.863 15.72 105.863 12.168C105.863 8.616 103.295 6.168 99.8389 6.168C96.2149 6.168 93.7909 8.808 93.7909 12.168C93.7909 15.528 96.2149 18.144 99.8389 18.144ZM99.8389 16.368C97.4149 16.368 95.7829 14.496 95.7829 12.168C95.7829 9.84 97.3909 7.944 99.8389 7.944C102.095 7.944 103.871 9.672 103.871 12.168C103.871 14.664 102.071 16.368 99.8389 16.368Z" fill="black"/>
</svg>
